<svg width="29" height="29" viewBox="0 0 29 29" fill="none" xmlns="http://www.w3.org/2000/svg">
<path d="M7.75 1H6.40033C4.51015 1 3.56436 1 2.84241 1.36785C2.20736 1.69143 1.69143 2.20736 1.36785 2.84241C1 3.56436 1 4.51015 1 6.40033V22.6003C1 24.4905 1 25.4351 1.36785 26.1571C1.69143 26.7921 2.20736 27.3089 2.84241 27.6325C3.56365 28 4.5083 28 6.39479 28H7.75M7.75 1H22.6003C24.4905 1 25.4343 1 26.1562 1.36785C26.7913 1.69143 27.3089 2.20736 27.6325 2.84241C28 3.56365 28 4.5083 28 6.39479V22.606C28 24.4925 28 25.4358 27.6325 26.1571C27.3089 26.7921 26.7913 27.3089 26.1562 27.6325C25.435 28 24.4917 28 22.6052 28H7.75M7.75 1V28M14.5 12.8125H21.25M14.5 7.75H21.25" stroke="white" stroke-width="2" stroke-linecap="round" stroke-linejoin="round"/>
</svg>
