<svg width="29" height="29" viewBox="0 0 29 29" fill="none" xmlns="http://www.w3.org/2000/svg">
<path d="M11.2534 2.88583C10.7979 1.74685 9.69476 1 8.46808 1H4.34203C2.77242 1 1.5 2.27215 1.5 3.8418C1.5 17.1838 12.3159 28 25.6576 28C27.2272 28 28.4993 26.7274 28.4993 25.1578L28.5 21.031C28.5 19.8042 27.7534 18.7013 26.6144 18.2457L22.6598 16.6644C21.6368 16.2552 20.4719 16.4394 19.6255 17.1448L18.6048 17.996C17.4129 18.9893 15.6591 18.9103 14.562 17.8132L11.6881 14.9366C10.5909 13.8394 10.5099 12.087 11.5032 10.895L12.3542 9.87445C13.0596 9.02794 13.2454 7.86274 12.8362 6.83964L11.2534 2.88583Z" stroke="white" stroke-width="2" stroke-linecap="round" stroke-linejoin="round"/>
</svg>
